<svg width="115" height="116" viewBox="0 0 115 116" fill="none" xmlns="http://www.w3.org/2000/svg">
<path d="M0.8125 33V1.59375H30.2734V10.6875H12.7422V14.0859H28.6328V22.0312H12.7422V33H0.8125ZM33.4375 33V1.59375H56.5234C60.4297 1.59375 63.4844 2.53125 65.6875 4.40625C67.9062 6.28125 69.0156 8.88281 69.0156 12.2109C69.0156 15.7578 67.8594 18.5547 65.5469 20.6016C63.2344 22.6484 60.1719 23.6719 56.3594 23.6719H45.3906V33H33.4375ZM45.3906 16.3125H53.3125C54.5625 16.3125 55.4688 16.0234 56.0312 15.4453C56.6094 14.8516 56.8984 14.0391 56.8984 13.0078C56.8984 11.9922 56.6016 11.1953 56.0078 10.6172C55.4297 10.0391 54.5312 9.74219 53.3125 9.72656H45.3906V16.3125ZM58.1641 33L50.7344 20.1094L61.375 17.7891L71.2188 33H58.1641ZM71.9688 17.3906V16.9219C71.9688 11.4844 73.9922 7.46875 78.0391 4.875C82.0859 2.26563 87.1172 0.960938 93.1328 0.960938C99.1641 0.960938 104.203 2.26563 108.25 4.875C112.312 7.46875 114.344 11.4844 114.344 16.9219V17.3906C114.344 22.9688 112.312 27.0703 108.25 29.6953C104.203 32.3047 99.1641 33.6094 93.1328 33.6094C87.1172 33.6094 82.0859 32.3047 78.0391 29.6953C73.9922 27.0703 71.9688 22.9688 71.9688 17.3906ZM84.4844 18.9609C84.4844 21.3672 85.2578 23.1016 86.8047 24.1641C88.3516 25.2266 90.4766 25.7812 93.1797 25.8281C95.8359 25.8594 97.9453 25.3281 99.5078 24.2344C101.07 23.125 101.852 21.3828 101.852 19.0078V15.4453C101.852 13.1953 101.07 11.5703 99.5078 10.5703C97.9609 9.57031 95.8516 9.05469 93.1797 9.02344C90.4766 8.97656 88.3516 9.47656 86.8047 10.5234C85.2578 11.5547 84.4844 13.1875 84.4844 15.4219V18.9609ZM0.789062 74V42.5938H12.4375L24.2734 57.0312C24.4453 57.3125 24.6016 57.5938 24.7422 57.875C24.8828 58.1562 25.0156 58.4219 25.1406 58.6719H25.2812C25.25 58.2812 25.2266 57.9375 25.2109 57.6406C25.1953 57.3438 25.1875 57.0078 25.1875 56.6328V42.5938H35.2188V74H23.9219L11.7812 59.2812C11.5781 59 11.3984 58.7266 11.2422 58.4609C11.1016 58.1797 10.9688 57.8984 10.8438 57.6172H10.7031C10.75 57.8828 10.7734 58.1094 10.7734 58.2969C10.7891 58.4844 10.7969 58.6953 10.7969 58.9297L10.8438 74H0.789062ZM38.3359 51.8984V42.5938H74.7344V51.8984H62.6172V74H50.4766V51.8984H38.3359ZM77.9219 74V42.5938H109.094V51.7109H89.1484V54.4297H107.078V62.2109H89.1484V65.2578H109.516V74H77.9219ZM0.789062 115V83.5938H12.4375L24.2734 98.0312C24.4453 98.3125 24.6016 98.5938 24.7422 98.875C24.8828 99.1562 25.0156 99.4219 25.1406 99.6719H25.2812C25.25 99.2812 25.2266 98.9375 25.2109 98.6406C25.1953 98.3438 25.1875 98.0078 25.1875 97.6328V83.5938H35.2188V115H23.9219L11.7812 100.281C11.5781 100 11.3984 99.7266 11.2422 99.4609C11.1016 99.1797 10.9688 98.8984 10.8438 98.6172H10.7031C10.75 98.8828 10.7734 99.1094 10.7734 99.2969C10.7891 99.4844 10.7969 99.6953 10.7969 99.9297L10.8438 115H0.789062ZM40.8438 115V83.5938H60.1094C65.1562 83.5938 69.2266 84.8672 72.3203 87.4141C75.4141 89.9453 76.9609 93.7578 76.9609 98.8516V99.4375C76.9609 104.469 75.3906 108.32 72.25 110.992C69.125 113.664 65.0781 115 60.1094 115H40.8438ZM52.4219 107.031H58.7266C60.4141 107.031 61.8672 106.508 63.0859 105.461C64.3047 104.414 64.9141 102.672 64.9141 100.234V98.2656C64.9141 95.875 64.3359 94.2266 63.1797 93.3203C62.0234 92.3984 60.5391 91.9375 58.7266 91.9375H52.4219V107.031ZM78.4844 109.633C78.4844 108.039 79.0234 106.703 80.1016 105.625C81.1797 104.531 82.7266 103.984 84.7422 103.984C86.7734 103.984 88.3203 104.531 89.3828 105.625C90.4609 106.703 91 108.055 91 109.68C91 111.289 90.4609 112.641 89.3828 113.734C88.3047 114.812 86.7578 115.352 84.7422 115.352C82.7266 115.352 81.1797 114.797 80.1016 113.688C79.0234 112.578 78.4844 111.227 78.4844 109.633Z" fill="#666666"/>
</svg>
