<svg width="250" height="250" viewBox="0 0 250 250" fill="none" xmlns="http://www.w3.org/2000/svg">
<rect width="250" height="250" rx="48" fill="#044989"/>
<path d="M197.851 133.971C197.708 134.166 194.641 139.733 194.641 139.733C194.641 139.733 195.949 131.271 197.091 130.595C197.156 130.374 195.562 129.339 193.134 129.209C192.667 129.209 191.135 130.374 188.326 134.53C188.326 134.53 188.885 131.998 189.534 131.517C189.521 131.257 187.768 130.05 185.885 130.115C185.418 130.193 182.145 132.894 179.899 136.503C179.899 136.503 180.548 132.885 181.526 132.089C181.526 132.089 179.923 131.056 177.318 131.053C177.318 131.053 175.571 133.716 174.939 137.254C174.204 138.548 171.955 142.629 171.955 142.629C171.955 142.629 173.262 134.167 174.405 133.492C174.47 133.271 172.876 132.236 170.448 132.106C169.98 132.106 168.449 133.271 165.64 137.427C165.64 137.427 166.198 134.894 166.847 134.414C166.835 134.154 165.081 132.947 163.199 133.012C162.731 133.09 159.459 135.79 157.212 139.4C157.212 139.4 157.862 135.782 158.84 134.985C158.84 134.985 157.237 133.953 154.632 133.949C154.632 133.949 152.818 136.713 152.218 140.35L149.453 145.403C149.453 145.403 151.028 137.092 152.309 135.534C152.361 135.17 147.877 134.824 147.877 134.824C147.877 134.824 146.596 136.954 146.128 140.607L142.735 146.303C142.735 146.303 144.553 137.196 145.626 136.4C145.678 136.002 141.255 135.698 141.255 135.698C141.255 135.698 140.571 136.14 139.948 138.651C139.236 141.578 138.697 145.957 139.112 146.996C139.387 147.459 140.45 148.917 143.41 148.762C144.047 148.476 145.696 145.541 145.696 145.541C145.696 145.541 145.739 147.922 150.115 147.909C150.45 147.933 151.981 145.346 152.251 144.885C152.352 145.389 152.486 145.895 152.668 146.4C153.096 146.971 156.665 147.31 156.735 147.22C156.806 147.131 156.19 145.065 158.424 140.585C158.995 139.299 160.865 136.365 162.319 135.767C161.748 137.066 158.952 142.439 160.173 144.997C160.77 145.672 163.056 146.473 164.04 146.292C164.302 145.177 165.592 138.517 169.28 134.752C169.28 134.752 166.882 140.006 167.834 143.257C168.756 145.049 171.811 145.13 172.759 145.039C173.041 144.848 173.977 143.543 174.935 141.978C175.036 142.485 175.171 142.995 175.354 143.503C175.783 144.074 179.352 144.413 179.422 144.324C179.492 144.234 178.876 142.168 181.11 137.688C181.681 136.403 183.551 133.468 185.005 132.871C184.434 134.169 181.639 139.542 182.859 142.1C183.457 142.775 185.742 143.576 186.726 143.395C186.988 142.28 188.279 135.62 191.966 131.855C191.966 131.855 189.569 137.11 190.521 140.36C191.443 142.152 194.498 142.233 195.446 142.142C196.027 141.75 199.377 136.633 200 134.244C200 134.244 198.773 133.9 197.851 133.971" fill="white"/>
<path d="M184.011 109.511C184.011 109.511 177.832 120.036 175.609 123.496C175.609 123.496 176.726 117.964 177.245 116.536C177.583 115.212 182.621 97.7594 182.621 97.7594L186.257 97.2919L187.53 94.4612L183.556 95.0326C183.556 95.0326 185.764 88.3841 186.75 87.9427C186.906 87.5529 178.163 86.5662 176.509 86.4883C176.509 86.4883 173.047 93.8292 172.272 96.5062L170.714 96.7663L169.497 99.6293L171.333 99.3523C171.333 99.3523 168.182 108.485 167.636 114.303C167.636 114.303 161.299 125.496 160.858 125.756C160.416 126.015 166.052 105.057 168.987 101.551C168.987 100.963 159.144 100.08 159.144 100.08C159.144 100.08 158.036 99.4562 156.097 105.481C154.158 111.507 150.348 126.119 152.842 128.681C155.335 131.244 161.083 131.66 162.122 131.66C163.274 131.344 167.012 125.311 167.406 124.671C167.47 124.957 167.55 125.193 167.649 125.366C168.788 127.244 169.89 127.816 171.841 128.612C173.791 129.409 176.423 129.53 177.012 129.357C177.817 129.313 186.049 117.237 189.01 110.381C189.062 109.979 186.984 109.524 184.011 109.511Z" fill="white"/>
<path d="M163.218 86.4791C163.218 86.4791 159.946 93.4131 162.595 95.9063C163.634 96.5557 165.504 96.3218 166.62 96.0362C167.581 94.5559 172.49 86.7906 172.49 86.7906C172.49 86.7906 165.14 84.8688 163.218 86.4791" fill="white"/>
<path d="M140.577 112.326C140.447 113.832 137.207 123.155 137.207 123.155C137.207 123.155 133.422 132.855 132.44 132.634C130.016 132.15 129.301 131.032 128.955 130.443C128.595 129.963 128.795 129.674 128.795 129.674L128.74 129.544C128.74 129.544 132.448 116.896 133.851 113.001C136.266 109.91 139.564 106.872 140.577 107.365C141.59 107.859 140.915 110.741 140.577 112.326ZM107.621 120.268C107.621 120.268 107.551 121.177 106.963 123.662C102.738 130.661 99.3358 134.809 99.3358 134.809C99.3358 134.809 98.5826 135.803 98.1325 135.608C97.8858 135.569 98.1325 133.634 98.1325 133.634C99.8553 121.649 104.128 112.339 106.296 112.78C108.452 112.598 107.621 120.268 107.621 120.268M142.923 103.123C140.43 103.071 135.824 107.46 135.824 107.46C138.058 99.9376 141.097 94.5876 141.097 94.5876C140.681 93.9385 134.11 93.4191 130.682 93.1852C128.501 95.5745 125.073 105.34 124.605 106.586C122.216 112.559 121.073 121.736 121.073 121.736C121.073 121.736 115.637 131.639 114.702 132.522C114.702 132.522 115.973 126.871 117.801 121.06C119.651 115.177 122.063 109.128 122.926 108.291C122.926 108.291 123.229 107.936 117.619 107.339L112.529 106.872C112.529 106.872 110.932 108.781 109.646 112.975C109.646 112.975 109.196 110.378 107.915 110.135C106.495 109.703 102.807 108.975 99.5177 109.477C96.2281 109.98 90.9301 113.719 88.4368 128.471C86.3248 138.686 93.4924 142.27 96.4531 140.919C98.1673 140.088 103.933 133.439 106.01 130.323C106.01 130.323 105.413 133.907 106.789 135.232C107.335 136.089 108.478 136.868 109.984 137.361C111.49 137.855 114.399 138.686 116.294 138.27C117.489 137.828 122.216 130.011 122.216 130.011C124.268 133.258 129.228 136.53 132.786 135.933C137.175 135.439 141.382 132.106 143.217 130.721C145.053 129.336 148.273 123.623 149.658 118.706C151.043 113.788 151.441 111.157 151.441 108.11C150.125 103.054 145.416 103.175 142.923 103.123" fill="white"/>
<path d="M121.772 139.746C117.825 140.421 111.393 141.798 110.51 141.85C109.627 141.902 107.895 141.607 105.662 144.083C105.662 144.083 105.627 144.239 104.675 143.806C104.675 143.806 100.071 141.839 98.2921 142.019C97.6933 142.11 86.1592 147.492 77.0778 151.849C77.1215 148.582 78.2747 144.425 79.6049 139.582C85.5561 117.91 101.178 85.182 101.178 85.182C98.8923 84.351 86.6343 86.6364 86.6343 86.6364C86.6343 86.6364 71.3982 116.416 66.0656 134.63C62.0489 151.113 63.154 156.653 63.154 156.653C64.0601 157.177 65.1197 157.333 66.2422 157.242C66.242 157.242 66.242 157.242 66.2418 157.242C64.4034 158.488 62.2739 159.977 62.2739 159.977L53.3918 174.209C53.3918 174.209 53.5997 174.347 54.327 174.07C55.0541 173.793 59.7287 171.923 70.2208 166.21C80.7129 160.497 97.9574 152.186 97.9574 152.186L124.113 140.343C124.113 140.343 125.304 139.876 125.564 139.538C125.564 139.538 125.72 139.071 121.772 139.746" fill="white"/>
<path d="M48.8275 186.366C48.8275 186.366 93.1507 164.246 103.816 156.815C117.13 152.553 138.59 148.726 168.231 157.461C168.231 157.461 134.634 149.246 111.572 167.044C109.668 168.568 107.382 169.399 105.201 169.537C101.548 169.667 71.1621 177.225 48.8275 186.366Z" fill="white"/>
<path d="M60.045 131.203C60.045 131.203 56.1667 149.452 53.3965 155.338C49.4489 164.965 46.0556 168.22 41 172.86C41 172.86 50.6957 166.004 55.8897 158.662C57.9327 155.823 57.725 154.507 57.725 154.507L60.045 131.203Z" fill="white"/>
</svg>
