<svg width="212" height="220" viewBox="0 0 212 220" fill="none" xmlns="http://www.w3.org/2000/svg">
<path d="M75.5945 86.072L71.1145 80.568L71.0505 80.504H71.1145L76.9385 73.464C80.3945 69.176 84.4265 65.336 88.9065 62.072H80.0105C79.5625 64.824 78.4105 67.32 76.6825 69.496L69.3225 78.264L62.0905 69.496C60.3625 67.384 59.2105 64.824 58.7625 62.072H40.5225C45.4505 65.912 49.9305 70.264 53.8985 75.064L58.3785 80.568H58.4425L58.3785 80.632L52.5545 87.672C49.0985 91.96 45.0665 95.8 40.5865 99.064H49.6745C50.1225 96.312 51.2745 93.816 53.0025 91.64L60.2985 82.872L67.4665 91.64C69.1945 93.752 70.3465 96.312 70.7945 99.064H89.0345C84.1065 95.224 79.6265 90.872 75.6585 86.072H75.5945ZM124.13 62.072C124.642 64.76 124.322 67.576 123.17 70.072L114.85 88.568L106.978 70.904C106.018 68.792 105.57 66.552 105.57 64.312C105.57 63.544 105.634 62.776 105.762 62.008H89.442C92.77 65.528 95.522 69.56 97.506 73.976L106.658 94.456C107.938 97.272 108.898 101.432 107.618 104.248C107.618 104.248 105.058 110.136 101.154 110.136C98.786 110.136 99.106 103.544 101.794 100.92H96.034C93.73 100.92 91.81 102.84 91.874 105.144C91.938 107.32 92.834 109.24 94.242 110.648C95.65 112.056 98.53 112.952 100.706 113.016C105.058 113.016 108.194 110.456 109.986 106.488L124.834 73.336C126.754 69.112 129.378 65.272 132.642 62.008L124.13 62.072ZM164.045 96.184H141.901L170.637 70.776V62.072H134.861V69.624C134.861 69.816 134.925 69.816 135.053 69.752C137.549 67.832 140.301 64.952 143.437 64.952H163.789L134.925 90.36V99.064H170.765V91.512C169.229 93.624 166.733 96.184 164.109 96.184H164.045ZM78.1165 148.08L78.0525 130.992C78.0525 125.296 79.7805 122.288 80.4845 121.328L80.7405 121.008H65.3805L65.5085 121.136C65.7005 121.392 66.0845 121.904 66.5325 122.736L66.5965 122.864C67.3005 124.464 68.0685 127.024 68.0685 130.864L68.1325 141.616C68.1325 151.088 65.7645 155.888 57.9565 155.888C51.8125 155.888 49.5085 151.088 49.5085 141.616V130.928C49.5085 125.232 51.2365 122.224 51.9405 121.264L52.1965 120.944H37.7325L37.8605 121.072C38.0525 121.328 38.4365 121.84 38.8845 122.672L38.9485 122.8C39.6525 124.4 40.4205 126.96 40.4205 130.8V139.376C40.4205 150 44.9645 158.64 57.9565 158.64C60.0685 158.64 62.8205 158.256 64.3565 157.616C69.6045 155.376 75.5565 155.504 80.7405 157.808C80.6125 157.616 80.0365 156.848 79.4605 155.376C78.8205 153.712 78.1805 151.216 78.1805 147.952L78.1165 148.08ZM125.312 130.992C125.312 124.4 128 121.072 128 121.072C122.752 123.44 116.8 123.568 111.552 121.328C109.952 120.688 107.2 120.304 105.088 120.304C92.0955 120.304 84.8635 128.944 84.8635 139.568C84.8635 150.192 92.0955 158.832 105.088 158.832C110.4 158.832 113.024 156.336 115.328 153.136C115.328 155.824 118.4 158 121.088 158H127.936C127.936 158 125.248 154.8 125.248 149.04L125.312 130.992ZM105.024 155.952C98.8795 155.952 94.7835 149.04 94.7835 139.504C94.7835 130.032 98.8795 123.056 105.024 123.056C112.832 123.056 115.264 130.032 115.264 139.504C115.264 145.648 112.832 155.888 105.024 155.888V155.952ZM160.97 157.744L160.714 158.064H175.178L175.05 157.936C174.858 157.68 174.474 157.168 174.026 156.336L173.962 156.208C173.258 154.608 172.49 152.048 172.49 148.208V139.632C172.49 129.008 167.946 120.368 154.954 120.368C152.842 120.368 150.09 120.752 148.554 121.392C143.306 123.632 137.354 123.504 132.17 121.2C132.298 121.392 132.874 122.16 133.45 123.632C134.09 125.296 134.73 127.792 134.73 131.056L134.794 148.144C134.794 153.84 133.066 156.848 132.362 157.808L132.106 158.128H147.466L147.338 158C147.146 157.744 146.762 157.232 146.314 156.4L146.25 156.272C145.546 154.672 144.778 152.112 144.778 148.272L144.714 137.52C144.714 128.048 147.082 123.248 154.89 123.248C161.034 123.248 163.338 128.048 163.338 137.52V148.208C163.338 153.904 161.61 156.912 160.906 157.872L160.97 157.744Z" fill="white"/>
<rect x="1" y="1" width="210" height="217.242" rx="41" stroke="white" stroke-width="2"/>
</svg>
