<svg width="70" height="67" viewBox="0 0 70 67" fill="none" xmlns="http://www.w3.org/2000/svg">
<path d="M31.1958 3.70821C32.3932 0.0229677 37.6068 0.0229585 38.8042 3.7082L44.2051 20.3303C44.7406 21.9784 46.2764 23.0942 48.0093 23.0942H65.4868C69.3617 23.0942 70.9728 28.0527 67.838 30.3303L53.6983 40.6033C52.2964 41.6219 51.7098 43.4274 52.2453 45.0755L57.6461 61.6976C58.8435 65.3828 54.6256 68.4473 51.4907 66.1697L37.3511 55.8967C35.9492 54.8781 34.0508 54.8781 32.6489 55.8967L18.5093 66.1697C15.3744 68.4473 11.1565 65.3828 12.3539 61.6976L17.7547 45.0755C18.2902 43.4274 17.7036 41.6219 16.3017 40.6033L2.16205 30.3303C-0.9728 28.0527 0.638296 23.0942 4.51319 23.0942H21.9907C23.7236 23.0942 25.2594 21.9784 25.7949 20.3303L31.1958 3.70821Z" fill="white"/>
</svg>
