<svg width="418" height="418" viewBox="0 0 418 418" fill="none" xmlns="http://www.w3.org/2000/svg">
<rect width="418" height="418" rx="48" fill="#EC9A98"/>
<path fill-rule="evenodd" clip-rule="evenodd" d="M209 76C219.044 76.0245 229.089 76.0035 239.132 76.0735C243.164 76.1015 247.194 76.1825 251.225 76.294C254.287 76.3786 257.348 76.5013 260.406 76.6617C262.964 76.7958 265.519 76.9674 268.071 77.1772C270.301 77.3606 272.529 77.5816 274.751 77.8412C276.744 78.074 278.734 78.3447 280.717 78.6544C292.477 80.4908 304.321 83.864 314.197 90.7283C315.222 91.4413 316.224 92.1903 317.196 92.9737C319.119 94.5206 320.923 96.1976 322.603 98.0035C325.164 100.756 327.415 103.79 329.344 107.015C332.211 111.808 334.369 116.999 335.998 122.334C337.489 127.222 338.557 132.235 339.345 137.282C340.395 144.006 340.981 150.799 341.338 157.592C341.692 164.351 341.88 172.2 341.927 178.865C341.996 188.91 341.976 198.955 342 209C341.976 219.044 341.996 229.089 341.927 239.132C341.898 243.163 341.817 247.194 341.706 251.225C341.622 254.287 341.498 257.348 341.338 260.406C341.205 262.964 341.033 265.519 340.823 268.071C340.64 270.301 340.418 272.529 340.159 274.75C339.926 276.744 339.655 278.734 339.346 280.717C337.51 292.477 334.136 304.321 327.272 314.197C326.559 315.222 325.809 316.225 325.026 317.197C323.48 319.118 321.802 320.923 319.996 322.604C317.244 325.164 314.21 327.415 310.985 329.344C306.192 332.211 301.001 334.369 295.666 335.998C290.778 337.489 285.764 338.557 280.718 339.345C273.995 340.395 267.201 340.982 260.409 341.338C253.648 341.693 245.803 341.88 239.135 341.927C229.09 341.996 219.045 341.976 209 342C198.956 341.976 188.912 341.996 178.868 341.927C174.837 341.898 170.806 341.817 166.776 341.706C163.714 341.622 160.652 341.498 157.593 341.338C155.036 341.205 152.481 341.033 149.929 340.823C147.699 340.64 145.472 340.418 143.249 340.16C141.256 339.926 139.266 339.655 137.283 339.345C125.523 337.51 113.679 334.136 103.803 327.272C102.777 326.56 101.776 325.809 100.803 325.027C98.8817 323.48 97.0773 321.802 95.3971 319.996C92.8358 317.244 90.5849 314.21 88.6554 310.985C85.7886 306.192 83.6304 301.001 82.0021 295.666C80.5102 290.778 79.4427 285.764 78.6545 280.718C77.6045 273.995 77.018 267.201 76.6618 260.409C76.3074 253.649 76.1199 245.8 76.0735 239.135C76.0036 229.09 76.0245 219.045 76 209C76.0245 198.956 76.0035 188.912 76.0735 178.868C76.1015 174.837 76.1825 170.806 76.2939 166.776C76.3786 163.714 76.5013 160.652 76.6617 157.593C76.7958 155.036 76.9674 152.481 77.1772 149.929C77.3606 147.699 77.5816 145.472 77.8412 143.25C78.074 141.256 78.3447 139.266 78.6543 137.283C80.4908 125.523 83.864 113.679 90.7283 103.803C91.4412 102.777 92.1903 101.776 92.9737 100.803C94.5205 98.8814 96.1976 97.0774 98.0035 95.3971C100.756 92.8359 103.789 90.5849 107.015 88.6554C111.808 85.7887 116.999 83.6304 122.334 82.0021C127.222 80.5102 132.235 79.4427 137.282 78.6546C144.006 77.6045 150.799 77.018 157.592 76.6618C164.351 76.3074 172.2 76.1199 178.865 76.0735C188.91 76.0036 198.955 76.0245 209 76Z" fill="#FFF2EE"/>
<path fill-rule="evenodd" clip-rule="evenodd" d="M207.184 219.29C208.482 212.068 210.835 205.8 214.242 200.485C217.651 195.171 221.748 191.114 226.535 188.314C231.323 185.515 236.393 184.115 241.749 184.115C246.211 184.115 249.884 185.028 252.764 186.854C255.645 188.679 257.653 191.174 258.789 194.339L264.265 163.546H291.285L275.342 253.612H248.322L250.026 244.24C247.753 247.405 244.852 249.9 241.324 251.726C237.794 253.551 233.798 254.464 229.335 254.464C222.438 254.464 216.88 252.152 212.66 247.526C208.441 242.901 206.332 236.492 206.332 228.296C206.332 225.213 206.615 222.211 207.184 219.29ZM254.528 219.289C254.691 218.559 254.773 217.586 254.773 216.368C254.773 213.61 254.041 211.48 252.582 209.979C251.12 208.477 249.132 207.727 246.617 207.727C243.696 207.727 241.12 208.741 238.888 210.769C236.657 212.798 235.217 215.638 234.568 219.289C234.405 220.02 234.325 220.993 234.325 222.211C234.325 224.969 235.055 227.099 236.516 228.6C237.975 230.102 239.964 230.852 242.479 230.852C245.401 230.852 247.976 229.838 250.208 227.81C252.439 225.781 253.88 222.941 254.528 219.289ZM187.79 220.26L206.778 253.608H176.593L167.83 238.151L156.389 253.608H126.692L156.146 217.46L137.646 184.963H167.83L176.593 200.542L188.156 184.963H217.853L187.79 220.26Z" fill="#D17F7D"/>
</svg>
